<svg width="300" height="143" viewBox="0 0 300 143" fill="none" xmlns="http://www.w3.org/2000/svg">
<rect width="300" height="143" rx="25" fill="white"/>
<path d="M76.52 42.2L57.576 87H42.728L23.784 42.2H40.04L50.728 68.376L61.672 42.2H76.52ZM78.023 42.2H100.103C105.095 42.2 109.49 43.1173 113.287 44.952C117.127 46.744 120.092 49.3253 122.183 52.696C124.316 56.0667 125.383 60.0347 125.383 64.6C125.383 69.1653 124.316 73.1333 122.183 76.504C120.092 79.8747 117.127 82.4773 113.287 84.312C109.49 86.104 105.095 87 100.103 87H78.023V42.2ZM99.463 75.224C102.706 75.224 105.287 74.3067 107.207 72.472C109.17 70.5947 110.151 67.9707 110.151 64.6C110.151 61.2293 109.17 58.6267 107.207 56.792C105.287 54.9147 102.706 53.976 99.463 53.976H93.127V75.224H99.463ZM160.801 79.192H143.777L140.769 87H125.409L144.993 42.2H159.841L179.425 87H163.809L160.801 79.192ZM156.641 68.312L152.289 57.048L147.937 68.312H156.641ZM201.036 75.736H196.94V87H181.836V42.2H203.404C207.542 42.2 211.148 42.8827 214.22 44.248C217.292 45.6133 219.66 47.576 221.324 50.136C222.988 52.696 223.82 55.6827 223.82 59.096C223.82 62.296 223.094 65.0907 221.644 67.48C220.193 69.8693 218.102 71.768 215.372 73.176L224.78 87H208.652L201.036 75.736ZM208.588 59.096C208.588 57.432 208.076 56.152 207.052 55.256C206.028 54.3173 204.492 53.848 202.444 53.848H196.94V64.344H202.444C204.492 64.344 206.028 63.896 207.052 63C208.076 62.0613 208.588 60.76 208.588 59.096ZM247.763 72.152L244.371 75.928V87H229.523V42.2H244.371V58.456L259.091 42.2H275.539L257.619 61.912L276.435 87H258.963L247.763 72.152Z" fill="black"/>
<path d="M63.112 95.2L55.744 112H53.368L45.976 95.2H48.568L54.616 109L60.712 95.2H63.112ZM70.7264 104.536L67.6544 107.656V112H65.2544V95.2H67.6544V104.584L76.7744 95.2H79.5104L72.3344 102.76L79.9664 112H77.1584L70.7264 104.536ZM88.9497 95.2H96.0297C97.8057 95.2 99.3817 95.552 100.758 96.256C102.134 96.96 103.198 97.952 103.95 99.232C104.718 100.496 105.102 101.952 105.102 103.6C105.102 105.248 104.718 106.712 103.95 107.992C103.198 109.256 102.134 110.24 100.758 110.944C99.3817 111.648 97.8057 112 96.0297 112H88.9497V95.2ZM95.8857 109.912C97.2457 109.912 98.4377 109.648 99.4617 109.12C100.502 108.592 101.302 107.856 101.862 106.912C102.422 105.952 102.702 104.848 102.702 103.6C102.702 102.352 102.422 101.256 101.862 100.312C101.302 99.352 100.502 98.608 99.4617 98.08C98.4377 97.552 97.2457 97.288 95.8857 97.288H91.3497V109.912H95.8857ZM119.247 107.8H110.319L108.471 112H105.999L113.607 95.2H115.983L123.615 112H121.095L119.247 107.8ZM118.407 105.88L114.783 97.648L111.159 105.88H118.407ZM137.354 112L133.73 106.84C133.282 106.872 132.93 106.888 132.674 106.888H128.522V112H126.122V95.2H132.674C134.85 95.2 136.562 95.72 137.81 96.76C139.058 97.8 139.682 99.232 139.682 101.056C139.682 102.352 139.362 103.456 138.722 104.368C138.082 105.28 137.17 105.944 135.986 106.36L139.97 112H137.354ZM132.602 104.848C134.122 104.848 135.282 104.52 136.082 103.864C136.882 103.208 137.282 102.272 137.282 101.056C137.282 99.84 136.882 98.912 136.082 98.272C135.282 97.616 134.122 97.288 132.602 97.288H128.522V104.848H132.602ZM149.031 104.536L145.959 107.656V112H143.559V95.2H145.959V104.584L155.079 95.2H157.815L150.639 102.76L158.271 112H155.463L149.031 104.536ZM170.59 97.288H164.83V95.2H178.726V97.288H172.966V112H170.59V97.288ZM195.788 95.2V112H193.388V104.512H183.74V112H181.34V95.2H183.74V102.424H193.388V95.2H195.788ZM213.009 109.912V112H200.817V95.2H212.673V97.288H203.217V102.448H211.641V104.488H203.217V109.912H213.009ZM232.471 112L232.447 99.76L226.375 109.96H225.271L219.199 99.832V112H216.895V95.2H218.863L225.871 107.008L232.783 95.2H234.751L234.775 112H232.471ZM252.009 109.912V112H239.817V95.2H251.673V97.288H242.217V102.448H250.641V104.488H242.217V109.912H252.009Z" fill="black"/>
</svg>
